<svg width="429" height="177" viewBox="0 0 429 177" fill="none" xmlns="http://www.w3.org/2000/svg">
<path d="M51.9866 0.0400391V79H73.3466V39.76L108.747 86.08V63.88L122.907 79V7.84004H115.707V61.6L108.747 53.68V7.84004H101.547V64.84L51.9866 0.0400391ZM59.1866 21.28L66.1466 30.4V71.8H59.1866V21.28Z" fill="#DB0000"/>
<path d="M141.049 7.84004V79H200.329V71.8H163.369V58.6H178.609V37.24H163.369V29.32H200.329V22.12H163.369V15.04H200.329V7.84004H141.049ZM148.249 15.04H156.169V22.12H148.249V15.04ZM148.249 29.32H156.169V37.24H148.249V29.32ZM148.249 44.44H156.169V51.4H148.249V44.44ZM163.369 44.44H171.409V51.4H163.369V44.44ZM148.249 58.6H156.169V71.8H148.249V58.6Z" fill="#DB0000"/>
<path d="M251.178 7.00004C231.258 7.00004 215.178 23.2 215.178 43C215.178 49.48 216.858 55.6 219.858 60.76L222.138 64.96L233.298 53.8C234.738 56.2 236.658 58.24 238.818 59.8L227.778 70.84L231.618 73.2401C237.258 76.9601 243.978 79 251.058 79C270.978 79 287.058 62.92 287.058 43C287.058 35.92 285.018 29.2 281.298 23.56L278.898 19.72L267.858 30.76C266.298 28.6 264.258 26.68 261.858 25.24L273.018 14.08L268.938 11.8C263.658 8.80004 257.538 7.00004 251.178 7.00004ZM251.058 14.2C254.538 14.2 257.778 14.92 260.898 16L254.418 22.48C253.218 22.36 252.138 22.24 251.058 22.24C239.658 22.24 230.298 31.6 230.298 43C230.298 44.2 230.418 45.28 230.538 46.36L224.058 52.84C222.978 49.72 222.258 46.48 222.258 43C222.258 27.16 235.218 14.2 251.058 14.2ZM251.058 29.44C256.098 29.44 260.298 32.08 262.698 35.92L243.978 54.64C240.138 52.24 237.498 48.04 237.498 43C237.498 35.44 243.498 29.44 251.058 29.44ZM277.458 31.48C279.018 34.96 279.858 38.92 279.858 43C279.858 58.96 267.018 71.8 251.058 71.8C246.978 71.8 243.018 70.96 239.538 69.4L277.458 31.48Z" fill="#DB0000"/>
<path d="M303.471 0.0400391V79H324.831V39.76L360.231 86.08V63.88L374.391 79V7.84004H367.191V61.6L360.231 53.68V7.84004H353.031V64.84L303.471 0.0400391ZM310.671 21.28L317.631 30.4V71.8H310.671V21.28Z" fill="#DB0000"/>
<path d="M0.365479 90.04V169H21.7255V129.76L57.1255 176.08V153.88L71.2855 169V97.84H64.0855V151.6L57.1255 143.68V97.84H49.9255V154.84L0.365479 90.04ZM7.56548 111.28L14.5255 120.4V161.8H7.56548V111.28Z" fill="#DB0000"/>
<path d="M89.428 98.08V169H96.508V105.16H103.588V169H110.668V98.08H89.428Z" fill="#DB0000"/>
<path d="M162.526 97C142.606 97 126.526 113.2 126.526 133C126.526 152.92 142.606 169 162.526 169C168.526 169 174.286 167.56 179.326 164.8L181.246 163.84V138.64H194.926V131.44H161.446V138.64H173.686C171.646 142.84 167.446 145.6 162.526 145.6C155.446 145.6 149.926 140.08 149.926 133C149.926 126.04 155.446 120.4 162.526 120.4C164.326 120.52 165.886 120.88 167.446 121.48H197.086L194.326 116.2C188.206 104.8 176.206 97 162.526 97ZM162.526 104.2C171.166 104.2 178.966 108.16 184.246 114.28H168.526C166.606 113.68 164.566 113.32 162.406 113.32C151.606 113.32 142.606 122.2 142.606 133.12C142.606 143.92 151.606 152.92 162.406 152.92C166.846 152.92 170.806 151.48 174.046 149.08V159.28C170.446 160.84 166.606 161.92 162.526 161.92C146.566 161.92 133.726 148.96 133.726 133.12C133.726 117.16 146.566 104.2 162.526 104.2Z" fill="#DB0000"/>
<path d="M253.992 97.84V123.16H233.832V97.84H226.752V169H233.832V144.4H253.992V169H261.192V144.4H268.272V169H275.352V137.32H233.832V130.24H275.352V97.84H253.992ZM212.592 97.84V169H219.672V97.84H212.592ZM261.192 104.92H268.272V123.16H261.192V104.92Z" fill="#DB0000"/>
<path d="M291.654 97.96V105.16H313.254V112.12L291.654 112.24V119.44H313.254V169H320.454V119.44H330.534V119.56V169H337.734V119.56H360.054V97.96H291.654ZM320.454 105.16H330.534V112.12H320.454V105.16ZM337.734 105.16H352.854V112.36H337.734V105.16Z" fill="#DB0000"/>
<path d="M399.22 97C389.86 97 382.18 104.8 382.18 114.16C382.18 116.08 382.42 118.96 383.02 120.64C381.1 123.4 379.9 126.88 379.9 130.48C379.9 136.36 382.9 141.52 387.46 144.64L373.54 144.76V151.96L382.54 151.84C384.34 162.52 393.94 170.08 405.1 170.08C417.46 170.08 428.02 160.84 428.02 148.24C428.02 135.64 417.7 125.32 405.1 125.2H399.22C393.7 125.2 389.38 119.68 389.38 114.16C389.38 108.64 393.7 104.2 399.22 104.2C404.74 104.2 409.42 108.76 409.42 114.16V117.76H426.22V110.56H416.26C414.58 102.88 407.5 97 399.22 97ZM387.58 127.72C390.58 130.6 394.66 132.4 399.22 132.4H405.1C413.74 132.4 420.82 139.48 420.82 148.24C420.82 148.48 420.82 148.84 420.7 149.08C416.62 143.92 410.14 140.44 402.94 140.44H397.06C391.54 140.44 387.1 136 387.1 130.48C387.22 129.52 387.34 128.44 387.58 127.72ZM389.38 145.72C391.66 146.92 394.3 147.64 397.06 147.64H402.82C409.54 147.64 415.18 151.84 417.46 157.6C414.7 160.96 410.26 162.88 405.1 162.88C396.1 162.88 389.38 157 389.38 148.24V145.72Z" fill="#DB0000"/>
</svg>
